<svg width="34" height="34" viewBox="0 0 34 34" fill="none" xmlns="http://www.w3.org/2000/svg">
<path d="M17.0001 12.7502C15.8729 12.7502 14.7919 13.1979 13.9949 13.995C13.1979 14.792 12.7501 15.873 12.7501 17.0002C12.7501 18.1273 13.1979 19.2083 13.9949 20.0054C14.7919 20.8024 15.8729 21.2502 17.0001 21.2502C18.1273 21.2502 19.2083 20.8024 20.0053 20.0054C20.8023 19.2083 21.2501 18.1273 21.2501 17.0002C21.2501 15.873 20.8023 14.792 20.0053 13.995C19.2083 13.1979 18.1273 12.7502 17.0001 12.7502ZM17.0001 9.91683C18.8787 9.91683 20.6804 10.6631 22.0088 11.9915C23.3372 13.3199 24.0834 15.1215 24.0834 17.0002C24.0834 18.8788 23.3372 20.6805 22.0088 22.0088C20.6804 23.3372 18.8787 24.0835 17.0001 24.0835C15.1215 24.0835 13.3198 23.3372 11.9914 22.0088C10.6631 20.6805 9.91678 18.8788 9.91678 17.0002C9.91678 15.1215 10.6631 13.3199 11.9914 11.9915C13.3198 10.6631 15.1215 9.91683 17.0001 9.91683ZM26.2084 9.56266C26.2084 10.0323 26.0219 10.4827 25.6898 10.8148C25.3577 11.1469 24.9073 11.3335 24.4376 11.3335C23.968 11.3335 23.5175 11.1469 23.1854 10.8148C22.8534 10.4827 22.6668 10.0323 22.6668 9.56266C22.6668 9.09301 22.8534 8.64259 23.1854 8.31049C23.5175 7.9784 23.968 7.79183 24.4376 7.79183C24.9073 7.79183 25.3577 7.9784 25.6898 8.31049C26.0219 8.64259 26.2084 9.09301 26.2084 9.56266ZM17.0001 5.66683C13.4953 5.66683 12.9229 5.67675 11.2924 5.749C10.1817 5.80141 9.43653 5.95016 8.7452 6.21933C8.16696 6.43235 7.64405 6.77273 7.2152 7.21525C6.77217 7.64396 6.4313 8.16688 6.21786 8.74525C5.9487 9.43941 5.79995 10.1832 5.74895 11.2924C5.67528 12.8564 5.66536 13.4032 5.66536 17.0002C5.66536 20.5064 5.67528 21.0773 5.74753 22.7079C5.79995 23.8172 5.9487 24.5637 6.21645 25.2537C6.45728 25.8699 6.74061 26.3133 7.21095 26.7837C7.68836 27.2597 8.13178 27.5444 8.74095 27.7796C9.44078 28.0502 10.1859 28.2003 11.2909 28.2513C12.8549 28.325 13.4018 28.3335 16.9987 28.3335C20.5049 28.3335 21.0759 28.3236 22.7064 28.2513C23.8143 28.1989 24.5595 28.0502 25.2522 27.7824C25.8304 27.5694 26.3533 27.229 26.7822 26.7865C27.2596 26.3105 27.5444 25.8671 27.7795 25.2565C28.0487 24.5595 28.1989 23.8143 28.2499 22.7065C28.3235 21.1439 28.332 20.5957 28.332 17.0002C28.332 13.4953 28.3221 12.923 28.2499 11.2924C28.1974 10.1846 28.0473 9.43658 27.7795 8.74525C27.5665 8.16701 27.2261 7.6441 26.7836 7.21525C26.3549 6.77222 25.832 6.43135 25.2536 6.21791C24.5594 5.94875 23.8143 5.8 22.7064 5.749C21.1439 5.67533 20.597 5.66683 16.9987 5.66683M16.9987 2.8335C20.8478 2.8335 21.328 2.84766 22.8396 2.9185C24.3469 2.98933 25.3754 3.22591 26.2779 3.57725C27.2129 3.93708 28.0005 4.42441 28.7882 5.21066C29.5089 5.91862 30.0663 6.77533 30.4216 7.721C30.7715 8.62341 31.0095 9.65191 31.0804 11.1607C31.1469 12.6708 31.1654 13.1511 31.1654 17.0002C31.1654 20.8492 31.1512 21.3295 31.0804 22.8397C31.0095 24.3498 30.7715 25.3755 30.4216 26.2793C30.0663 27.225 29.5089 28.0817 28.7882 28.7897C28.0802 29.5103 27.2235 30.0678 26.2779 30.4231C25.3754 30.773 24.3469 31.011 22.8396 31.0818C21.328 31.1484 20.8478 31.1668 16.9987 31.1668C13.1496 31.1668 12.6694 31.1527 11.1578 31.0818C9.65045 31.011 8.62336 30.773 7.71953 30.4231C6.77387 30.0678 5.91715 29.5103 5.2092 28.7897C4.48855 28.0817 3.9311 27.225 3.57578 26.2793C3.22445 25.3769 2.98786 24.3484 2.91703 22.8397C2.84903 21.3295 2.83203 20.8492 2.83203 17.0002C2.83203 13.1511 2.8462 12.6708 2.91703 11.1607C2.98786 9.6505 3.22445 8.62483 3.57578 7.721C3.9311 6.77533 4.48855 5.91862 5.2092 5.21066C5.91715 4.49001 6.77387 3.93257 7.71953 3.57725C8.62195 3.22591 9.64903 2.98933 11.1578 2.9185C12.6708 2.85191 13.151 2.8335 17.0001 2.8335" fill="#151D27"/>
</svg>
